<svg width="262" height="323" viewBox="0 0 262 323" fill="none" xmlns="http://www.w3.org/2000/svg">
<g clip-path="url(#clip0_714_3722)" filter="url(#filter0_dd_714_3722)">
<g filter="url(#filter1_dd_714_3722)">
<path d="M84.0034 273.731C87.8776 285.116 88.1023 297.821 84.5646 309.261C84.2278 310.361 83.835 311.516 84.0034 312.616C84.284 314.816 86.3055 316.301 88.2148 317.346C97.8729 322.461 109.159 322.956 119.996 323.011C137.46 323.066 154.923 322.076 172.274 320.041C174.239 317.676 172.947 314.046 171.993 311.021C169.241 301.946 171.319 292.156 172.274 282.696C172.386 281.596 172.442 280.441 171.993 279.507C171.544 278.627 170.701 278.077 169.859 277.527C157.618 269.992 143.355 265.922 129.093 265.922C123.309 265.922 117.526 266.582 111.742 267.461C102.365 268.947 93.0999 271.036 84.0034 273.731Z" fill="url(#paint0_linear_714_3722)"/>
<path d="M123.91 129.415C127.223 130.186 130.592 130.351 134.074 129.745C153.109 126.555 159.398 103.621 160.072 89.4856C160.746 75.5708 160.072 61.2158 153.671 48.5108C148.673 38.6662 139.577 32.7811 127.336 32.3961C124.809 32.3411 122.338 32.6711 119.867 33.1661C90.6124 38.9411 91.0617 77.4409 94.7116 98.2305C96.9015 110.385 109.03 125.95 123.91 129.415Z" fill="url(#paint1_linear_714_3722)"/>
<path d="M160.538 53.2723C155.372 39.8524 141.053 30.9425 126.454 30.0075C122.692 29.7875 118.874 30.0075 115.28 31.0525C105.341 33.9124 97.9851 42.6573 94.3352 52.1723C90.6854 61.6873 90.1238 72.0272 89.6185 82.2021C89.5626 83.6321 89.506 85.0621 90.1801 86.3271C90.8538 87.5921 92.5384 88.417 93.7737 87.7571C95.402 78.3523 97.0867 68.7822 101.635 60.3672C106.183 51.9522 114.213 44.7475 123.871 43.5373C132.743 42.4375 141.671 46.7275 147.735 53.2172C153.8 59.7073 156.383 66.6372 157.113 74.8872C157.562 80.0571 160.032 86.6019 162.447 77.5822C164.356 70.2122 163.233 60.2573 160.538 53.2723Z" fill="#576EF2"/>
<path d="M145.316 29.9638C142.34 31.6138 138.803 31.7788 135.377 31.7238C128.976 31.6138 122.631 31.0638 116.342 29.9638C113.029 29.4138 109.604 28.6438 106.796 26.8838C103.933 25.1238 101.686 22.0989 101.686 18.7989C101.686 15.7189 103.595 12.9139 105.898 10.7689C111.85 5.15898 120.441 2.79399 128.695 3.01399C133.524 3.12399 138.466 4.11399 142.621 6.58898C146.776 9.06394 150.089 13.0789 150.875 17.7539C151.605 22.4288 149.528 27.5988 145.316 29.9638Z" fill="#576EF2"/>
<path d="M178.403 470.184C176.494 428.438 180.537 385.87 180.144 343.905C181.435 329.329 179.358 314.534 174.136 300.839C173.799 300.014 173.462 299.134 172.788 298.474C170.767 296.439 167.341 297.539 164.702 298.584C139.209 308.869 109.112 306.449 85.8656 291.929C81.2611 298.749 79.9696 307.164 78.8465 315.304C76.9934 328.449 75.0282 341.54 74.5229 354.682V354.738C74.4108 357.542 74.3545 360.402 74.4104 363.262C74.7473 379.707 77.9481 395.88 80.4749 412.049C82.1032 422.607 83.5632 433.224 83.7316 443.948C83.8441 452.692 82.6085 460.725 84.5741 469.305C89.5151 490.423 89.5151 513.411 91.5928 534.973C93.839 558.072 96.0289 581.172 97.8257 604.327C97.882 605.262 97.9941 606.197 98.0504 607.076C99.2297 607.407 117.423 611.477 117.423 606.856C118.883 561.978 120.343 517.042 121.803 472.165C122.42 453.243 123.094 434.103 127.979 416.119C130.001 416.339 132.022 416.503 134.044 416.723C145.105 476.123 156.223 535.576 167.285 594.976C168.24 600.201 169.419 605.869 172.957 609.221C176.494 612.576 183.064 611.641 184.074 606.416C180.874 560.988 180.481 515.612 178.403 470.184Z" fill="#2E388F"/>
<path d="M100.616 128.808C103.721 130.54 106.997 132.041 110.555 133.196C124.446 137.699 141.331 135.621 152.851 128C162.169 130.483 168.776 137.064 172.164 144.281C175.553 151.555 176.174 159.406 176.795 167.143C179.505 203.341 182.216 239.597 184.927 275.796C185.04 277.586 185.152 279.491 184.193 281.107C182.16 284.398 176.626 285.091 171.995 285.264C140.597 286.649 109.03 286.072 77.6884 283.589C76.3895 283.474 75.0341 283.359 73.9612 282.839C71.5329 281.627 71.1941 279.029 71.1375 276.777C70.4034 242.368 72.6061 207.902 77.8012 173.782C79.7214 161.254 82.0931 148.553 88.813 137.179C90.1685 134.87 91.8627 132.503 94.5732 131.06C97.2272 129.616 97.9613 127.307 100.616 128.808Z" fill="#0E2087"/>
<g filter="url(#filter2_d_714_3722)">
<path d="M133.138 152.603C111.127 151.393 88.9465 150.183 67.1599 153.373C65.9245 176.418 66.0928 199.572 67.7211 222.617C100.738 219.537 135.44 219.592 168.569 219.647C168.569 198.968 166.941 175.153 166.941 154.528C155.655 153.813 144.424 153.208 133.138 152.603Z" fill="url(#paint2_linear_714_3722)"/>
</g>
<path d="M71.309 233.963C69.3438 237.098 67.3786 239.793 65.4693 241.113C62.9986 242.763 59.3488 242.323 57.3834 240.123C52.1614 234.293 61.5949 215.923 63.9533 209.983C68.277 199.038 73.4427 188.478 78.6087 177.918C80.4618 174.178 83.4379 169.778 87.6493 170.438C88.7161 170.603 89.6708 171.098 90.5129 171.758C95.3421 175.498 94.7806 182.813 93.2081 188.643C90.3445 199.423 85.74 209.763 79.6196 219.168C77.486 222.523 74.4536 228.848 71.309 233.963Z" fill="url(#paint3_linear_714_3722)"/>
<path d="M216.51 188.589C216.454 187.214 215.949 185.894 215.387 184.629C209.21 170.384 199.777 157.569 187.985 147.23C183.381 143.214 177.035 139.365 171.42 141.84C170.466 142.279 169.568 142.884 168.894 143.709C166.367 147.065 168.95 151.684 171.533 154.984C180.18 166.204 188.94 177.424 198.766 187.599C197.756 188.424 197.026 189.634 196.352 190.734C188.603 203.769 178.664 215.539 172.543 229.344C171.533 231.654 170.634 234.074 170.971 236.549C171.364 239.024 173.442 241.389 175.969 241.279C178.046 241.169 179.619 239.519 181.022 237.979C187.199 231.104 193.319 224.229 199.496 217.409C205.28 210.974 211.176 204.154 213.422 195.904C214.882 193.594 216.622 191.339 216.51 188.589Z" fill="url(#paint4_linear_714_3722)"/>
<path d="M177.767 72.7953C176.307 70.2105 174.678 67.5706 172.208 65.8104C171.534 65.3154 170.748 64.9304 169.962 64.6004C170.804 54.3157 165.357 44.1955 160.079 35.0107C158.114 31.6007 156.092 28.0808 153.229 25.3308C146.94 19.1708 137.45 17.3008 128.578 16.8608C117.011 16.3108 104.938 17.9058 95.2802 24.1208C90.4513 27.2558 86.2399 31.7107 84.6675 37.1558C83.7691 40.3457 83.7691 43.7006 83.7691 46.9456C83.7691 52.5006 83.8253 58.0005 83.8253 63.5555C81.5795 65.3154 80.0071 67.7356 78.603 70.2653C76.0204 74.9954 73.8305 80.1103 73.6058 85.4455C73.3811 90.7804 75.4026 96.5004 79.7824 99.6352C81.5792 100.9 83.6569 101.725 85.7347 102.44C88.7667 103.43 92.304 104.035 94.9433 102.275C98.2001 100.075 98.3126 95.5102 98.0316 91.6604C97.6385 86.1054 97.077 80.5504 97.077 74.9403C97.077 72.5756 97.1895 70.1554 96.6279 67.8455C96.0664 65.5355 94.7749 63.2807 92.6412 62.1806C91.125 61.4105 89.4404 61.3006 87.7558 61.6306C87.4189 56.6256 87.812 51.6207 89.5529 46.9456C93.2028 37.1558 102.805 30.0057 113.249 27.9708C123.693 25.9908 134.811 28.8508 143.627 34.7357C153.959 41.6107 161.314 52.6656 163.729 64.6555C163.729 64.6555 163.673 64.6555 163.617 64.7106C161.483 65.8104 160.192 68.0655 159.63 70.3755C159.068 72.6855 159.181 75.1053 159.181 77.4703C159.181 83.0253 158.619 88.6354 158.226 94.1904C157.945 98.0402 158.058 102.605 161.314 104.805C163.954 106.565 167.491 105.96 170.523 104.97C172.601 104.31 174.735 103.485 176.476 102.165C180.911 98.9753 182.877 93.3104 182.652 87.9752C182.54 82.5855 180.35 77.4703 177.767 72.7953Z" fill="#0F2950"/>
</g>
</g>
<defs>
<filter id="filter0_dd_714_3722" x="-7" y="0" width="317" height="397" filterUnits="userSpaceOnUse" color-interpolation-filters="sRGB">
<feFlood flood-opacity="0" result="BackgroundImageFix"/>
<feColorMatrix in="SourceAlpha" type="matrix" values="0 0 0 0 0 0 0 0 0 0 0 0 0 0 0 0 0 0 127 0" result="hardAlpha"/>
<feOffset dx="9" dy="13"/>
<feGaussianBlur stdDeviation="8"/>
<feColorMatrix type="matrix" values="0 0 0 0 0 0 0 0 0 0.0661577 0 0 0 0 0.166667 0 0 0 0.03 0"/>
<feBlend mode="normal" in2="BackgroundImageFix" result="effect1_dropShadow_714_3722"/>
<feColorMatrix in="SourceAlpha" type="matrix" values="0 0 0 0 0 0 0 0 0 0 0 0 0 0 0 0 0 0 127 0" result="hardAlpha"/>
<feOffset dx="37" dy="52"/>
<feGaussianBlur stdDeviation="12.5"/>
<feColorMatrix type="matrix" values="0 0 0 0 0 0 0 0 0 0 0 0 0 0 0 0 0 0 0.01 0"/>
<feBlend mode="normal" in2="effect1_dropShadow_714_3722" result="effect2_dropShadow_714_3722"/>
<feBlend mode="normal" in="SourceGraphic" in2="effect2_dropShadow_714_3722" result="shape"/>
</filter>
<filter id="filter1_dd_714_3722" x="48.8312" y="0" width="265.015" height="710.149" filterUnits="userSpaceOnUse" color-interpolation-filters="sRGB">
<feFlood flood-opacity="0" result="BackgroundImageFix"/>
<feColorMatrix in="SourceAlpha" type="matrix" values="0 0 0 0 0 0 0 0 0 0 0 0 0 0 0 0 0 0 127 0" result="hardAlpha"/>
<feOffset dx="9" dy="13"/>
<feGaussianBlur stdDeviation="8"/>
<feColorMatrix type="matrix" values="0 0 0 0 0 0 0 0 0 0.0661577 0 0 0 0 0.166667 0 0 0 0.03 0"/>
<feBlend mode="normal" in2="BackgroundImageFix" result="effect1_dropShadow_714_3722"/>
<feColorMatrix in="SourceAlpha" type="matrix" values="0 0 0 0 0 0 0 0 0 0 0 0 0 0 0 0 0 0 127 0" result="hardAlpha"/>
<feOffset dx="37" dy="52"/>
<feGaussianBlur stdDeviation="12.5"/>
<feColorMatrix type="matrix" values="0 0 0 0 0 0 0 0 0 0 0 0 0 0 0 0 0 0 0.01 0"/>
<feBlend mode="normal" in2="effect1_dropShadow_714_3722" result="effect2_dropShadow_714_3722"/>
<feBlend mode="normal" in="SourceGraphic" in2="effect2_dropShadow_714_3722" result="shape"/>
</filter>
<filter id="filter2_d_714_3722" x="16.3492" y="66.3337" width="202.22" height="171.283" filterUnits="userSpaceOnUse" color-interpolation-filters="sRGB">
<feFlood flood-opacity="0" result="BackgroundImageFix"/>
<feColorMatrix in="SourceAlpha" type="matrix" values="0 0 0 0 0 0 0 0 0 0 0 0 0 0 0 0 0 0 127 0" result="hardAlpha"/>
<feOffset dy="-35"/>
<feGaussianBlur stdDeviation="25"/>
<feComposite in2="hardAlpha" operator="out"/>
<feColorMatrix type="matrix" values="0 0 0 0 0.341667 0 0 0 0 0.439871 0 0 0 0 1 0 0 0 0.65 0"/>
<feBlend mode="normal" in2="BackgroundImageFix" result="effect1_dropShadow_714_3722"/>
<feBlend mode="normal" in="SourceGraphic" in2="effect1_dropShadow_714_3722" result="shape"/>
</filter>
<linearGradient id="paint0_linear_714_3722" x1="128.632" y1="265.922" x2="128.632" y2="323.013" gradientUnits="userSpaceOnUse">
<stop stop-color="#FFC78D"/>
<stop offset="1" stop-color="#D5893A"/>
</linearGradient>
<linearGradient id="paint1_linear_714_3722" x1="126.628" y1="32.3901" x2="126.628" y2="130.113" gradientUnits="userSpaceOnUse">
<stop stop-color="#FFC78D"/>
<stop offset="1" stop-color="#D5893A"/>
</linearGradient>
<linearGradient id="paint2_linear_714_3722" x1="117.459" y1="151.334" x2="117.459" y2="222.617" gradientUnits="userSpaceOnUse">
<stop stop-color="#1C1C1C"/>
<stop offset="1"/>
</linearGradient>
<linearGradient id="paint3_linear_714_3722" x1="75.0809" y1="170.372" x2="75.0809" y2="242.111" gradientUnits="userSpaceOnUse">
<stop stop-color="#FFC78D"/>
<stop offset="1" stop-color="#D5893A"/>
</linearGradient>
<linearGradient id="paint4_linear_714_3722" x1="192.188" y1="141.059" x2="192.188" y2="241.283" gradientUnits="userSpaceOnUse">
<stop stop-color="#FFC78D"/>
<stop offset="1" stop-color="#D5893A"/>
</linearGradient>
<clipPath id="clip0_714_3722">
<rect width="248" height="317" fill="white" transform="translate(0 3)"/>
</clipPath>
</defs>
</svg>
